<?xml version="1.0" encoding="UTF-8"?>
<svg width="183px" height="59px" viewBox="0 0 183 59" version="1.1" xmlns="http://www.w3.org/2000/svg" xmlns:xlink="http://www.w3.org/1999/xlink">
    <!-- Generator: Sketch 63.1 (92452) - https://sketch.com -->
    <title>Group 3</title>
    <desc>Created with Sketch.</desc>
    <g id="Page-1" stroke="none" stroke-width="1" fill="none" fill-rule="evenodd">
        <g id="Artboard" transform="translate(-257.000000, -257.000000)">
            <g id="Group-3" transform="translate(257.000000, 257.000000)">
                <g id="Group" transform="translate(77.000000, 1.000000)" fill="#000000" font-family="Montserrat-Bold, Montserrat" font-size="46" font-weight="bold" letter-spacing="0.886364">
                    <text id="odin">
                        <tspan x="0" y="46">odin</tspan>
                    </text>
                </g>
                <g id="Group-2" fill="#5850ED">
                    <circle id="Oval" cx="45" cy="8" r="8"></circle>
                    <circle id="Oval" cx="57" cy="29" r="8"></circle>
                    <circle id="Oval" cx="45" cy="51" r="8"></circle>
                    <circle id="Oval" cx="8" cy="29" r="8"></circle>
                    <circle id="Oval" cx="21" cy="8" r="8"></circle>
                    <circle id="Oval" cx="32" cy="29" r="8"></circle>
                    <circle id="Oval" cx="20" cy="51" r="8"></circle>
                    <path d="M16,13.2400171 C21.3333333,15.0800057 24,20.3333333 24,29 C24,37.6666667 21.3333333,42.8935894 16,44.6807682 L28,52 C28,44.2288516 30.3683707,38.7084838 35.105112,35.4388966 C35.9722445,28.092056 35.9722445,23.9257746 35.105112,22.9400524 C29,16 28.7237323,11.5314341 28.4858635,6.75539403 C28.1619545,0.25179801 24,2.41333904 16,13.2400171 Z" id="Path"></path>
                </g>
            </g>
        </g>
    </g>
</svg>